PathFileType	4	(X/Y/Z)	D:\TRACE\spotREDO_2-26-24\spot_justBody_Motion_3_5-platform.trc
DataRate	CameraRate	NumFrames	NumMarkers	Units	OrigDataRate	OrigDataStartFrame	OrigNumFrames
100.00	100.00	      25	5	mm	100.00	876	      7000
Frame#	Time	Left_Front			Right_Front			Left_Aft			Right_Aft			Post			
		X1	Y1	Z1	X2	Y2	Z2	X3	Y3	Z3	X4	Y4	Z4	X5	Y5	Z5	

876	8.750	-685.05731	-8.75728	-576.89899	729.95404	0.84489	-492.40460	-756.24725	9.39463	641.67249	813.97656	17.16160	645.74548	24.63331	614.94489	-989.09796	
877	8.760	-685.20044	-8.32960	-576.68890	729.93750	1.24374	-492.19348	-756.47321	9.18454	641.80988	814.29578	16.50611	645.80188	24.38342	615.61401	-988.84064	
878	8.770	-685.25647	-7.97554	-576.68732	729.81836	1.48671	-492.19513	-756.65985	8.97137	642.05206	813.96002	15.93589	645.77094	24.27830	616.17523	-988.29199	
879	8.780	-685.35516	-7.67481	-576.62842	729.68384	1.69666	-492.05154	-756.90192	8.51674	641.95612	813.69366	15.85756	645.88306	24.04850	616.65326	-987.64294	
880	8.790	-685.49969	-7.38590	-576.52905	729.39691	2.27715	-492.01321	-757.10944	8.04358	642.06677	813.35583	15.51118	646.02222	23.97848	617.31750	-986.85272	
881	8.800	-685.63373	-7.00860	-576.50568	729.42657	2.55119	-491.84189	-757.04883	7.81938	642.21307	813.46539	15.08112	646.19812	23.69926	617.92773	-986.60352	
882	8.810	-685.83185	-6.41910	-576.42377	729.33441	2.70459	-491.73083	-757.08142	7.37429	642.45709	813.41943	14.89205	646.29883	23.50699	618.86633	-985.81854	
883	8.820	-685.84607	-6.20814	-576.31415	729.25372	2.85418	-491.66882	-757.06683	6.86842	642.61578	813.33667	14.56784	646.29755	23.48823	619.27557	-984.99481	
884	8.830	-686.04761	-5.84884	-576.26917	729.14734	3.03263	-491.53952	-757.08459	6.47845	642.59662	813.16669	14.10222	646.36499	23.58985	619.79987	-984.59241	
885	8.840	-686.17419	-5.48444	-576.17615	729.03351	3.33089	-491.52423	-757.26703	5.94269	642.55945	813.04065	13.66351	646.45184	23.51551	620.57996	-984.11139	
886	8.850	-686.13965	-5.25470	-576.09650	728.83069	3.83572	-491.49234	-757.44836	5.66581	642.64307	812.91449	12.95321	646.53973	23.26699	621.30640	-983.65570	
887	8.860	-686.01544	-4.93080	-575.97754	728.84381	4.14411	-491.33734	-757.50299	5.46797	642.69531	812.67621	12.71362	646.69580	23.26222	621.72827	-983.36481	
888	8.870	-685.99323	-4.33838	-575.77856	728.83789	4.66425	-491.35583	-757.57581	5.20195	642.78271	812.66272	12.59876	646.74695	23.07985	622.27515	-982.99249	
889	8.880	-686.00616	-3.89082	-575.72186	728.96466	4.80219	-491.07803	-757.51563	4.75002	642.95044	812.74542	12.36662	646.82227	22.66956	623.02557	-982.65295	
890	8.890	-686.04260	-3.65935	-575.64954	728.93048	5.13162	-490.98569	-757.48584	4.30717	643.11841	812.67499	11.88846	646.94348	22.63331	623.50232	-982.37317	
891	8.900	-686.07520	-3.41433	-575.52905	728.67834	5.61132	-490.98877	-757.65771	3.71770	643.19043	812.67023	11.43396	647.24762	22.53682	623.98785	-982.24255	
892	8.910	-686.20648	-3.13604	-575.50842	728.79132	5.60994	-490.74963	-757.77368	3.42648	643.22559	812.49249	11.12661	647.35754	22.85057	624.55945	-981.72723	
893	8.920	-686.28674	-2.86774	-575.49048	728.58160	6.05925	-490.77499	-757.77325	3.29911	643.25262	812.58533	10.85556	647.41492	22.89120	625.20667	-981.30811	
894	8.930	-686.30548	-2.54037	-575.34729	728.50635	6.34755	-490.63947	-757.70740	2.93984	643.33307	812.57440	10.51479	647.42072	22.98139	625.82806	-980.62488	
895	8.940	-686.41528	-2.11970	-575.19446	728.57233	6.43755	-490.51868	-757.76758	2.72866	643.38843	812.56720	10.01754	647.39331	23.11950	626.24664	-980.07990	
896	8.950	-686.49384	-1.70387	-575.10876	728.65222	6.60821	-490.40363	-757.69586	2.58857	643.38446	812.54321	9.79996	647.52026	23.18560	626.86108	-979.37646	
897	8.960	-686.47797	-1.29092	-575.01642	728.57001	6.88892	-490.44293	-757.76544	2.09804	643.52209	812.41113	9.48427	647.70441	22.92383	627.51624	-978.93573	
898	8.970	-686.40131	-0.92580	-574.89246	728.54022	7.18545	-490.33990	-757.75342	1.37974	643.72467	812.61896	9.01317	647.79071	23.08312	627.97675	-978.34320	
899	8.980	-686.35974	-0.75372	-574.82330	728.48804	7.80630	-490.32736	-757.77594	0.91130	643.82068	812.52374	8.65235	647.93158	23.16035	628.38800	-977.78973	
900	8.990	-686.31329	-0.55651	-574.72986	728.47504	8.08026	-490.13602	-757.80743	0.68809	643.85675	812.52032	8.43771	648.06775	23.13634	629.07446	-977.37866	
